<?xml version="1.0" encoding="utf-8"?>
<!-- Generator: Adobe Illustrator 19.2.0, SVG Export Plug-In . SVG Version: 6.00 Build 0)  -->
<svg version="1.1" id="Layer_1" xmlns="http://www.w3.org/2000/svg" xmlns:xlink="http://www.w3.org/1999/xlink" x="0px" y="0px"
	 viewBox="0 0 45 33.8" style="enable-background:new 0 0 45 33.8;" xml:space="preserve">
<style type="text/css">
	.st0{fill:#FF9800;}
</style>
<path class="st0" d="M32.4,4.3c1,0,1.9-0.8,1.9-1.9s-0.8-1.9-1.9-1.9c-1,0-1.9,0.8-1.9,1.9S31.4,4.3,32.4,4.3z M11.3,4.3
	c1,0,1.9-0.8,1.9-1.9s-0.8-1.9-1.9-1.9s-1.9,0.9-1.9,2S10.2,4.3,11.3,4.3z M11.3,6.2c-3.1,0-5.6,2.5-5.6,5.6c0,2.5,1.6,4.6,3.7,5.3
	v14.1c0,1,0.8,1.9,1.9,1.9s1.9-0.8,1.9-1.9v-14c2.2-0.8,3.7-2.8,3.7-5.3C16.9,8.7,14.4,6.2,11.3,6.2z M11.3,15.6
	c-2.1,0-3.7-1.7-3.7-3.8S9.3,8,11.3,8S15,9.8,15,11.9S13.3,15.6,11.3,15.6z M32.4,6.2c-3.1,0-5.6,2.5-5.6,5.6c0,2.5,1.6,4.6,3.7,5.3
	v14.1c0,1,0.8,1.9,1.9,1.9c1,0,1.9-0.8,1.9-1.9v-14c2.2-0.8,3.7-2.8,3.7-5.3C38,8.7,35.5,6.2,32.4,6.2z M32.4,15.6
	c-2.1,0-3.7-1.7-3.7-3.8S30.4,8,32.4,8c2.1,0,3.7,1.7,3.7,3.8S34.5,15.6,32.4,15.6z"/>
<g>
	<g>
		<path class="st0" d="M23.7,16.6V2.5c0-1-0.8-1.9-1.9-1.9c-1,0-1.9,0.8-1.9,1.9v14.1c-2.2,0.8-3.7,2.8-3.7,5.3
			c0,3.1,2.5,5.6,5.6,5.6s5.6-2.5,5.6-5.6C27.4,19.4,25.9,17.4,23.7,16.6z M21.8,25.7c-2.1,0-3.7-1.7-3.7-3.8s1.7-3.8,3.7-3.8
			s3.7,1.7,3.7,3.8S23.9,25.7,21.8,25.7z M21.8,29.4c-1,0-1.9,0.8-1.9,1.9c0,1,0.8,1.9,1.9,1.9c1,0,1.9-0.8,1.9-1.9
			C23.7,30.3,22.9,29.4,21.8,29.4z"/>
	</g>
</g>
</svg>
