<?xml version="1.0" encoding="utf-8"?>
<!-- Generator: Adobe Illustrator 19.2.1, SVG Export Plug-In . SVG Version: 6.00 Build 0)  -->
<svg version="1.1" id="Layer_1" xmlns="http://www.w3.org/2000/svg" xmlns:xlink="http://www.w3.org/1999/xlink" x="0px" y="0px"
	 viewBox="0 0 1024 1000" style="enable-background:new 0 0 1024 1000;" xml:space="preserve">
<style type="text/css">
	.st0{fill:#A3C5E4;}
</style>
<path class="st0" d="M398.7,332c3.1,4.7,1.7,11.1-3.1,14.2c-4.7,3.1-11.1,1.7-14.2-3.1c-3.1-4.7-1.7-11.1,3.1-14.1
	C389.3,325.9,395.6,327.3,398.7,332z M395.3,334.2c-1.9-2.9-5.7-3.7-8.6-1.9c-2.9,1.9-3.7,5.7-1.9,8.6c1.9,2.9,5.7,3.7,8.6,1.9
	C396.3,340.9,397.2,337.1,395.3,334.2z"/>
<path class="st0" d="M564.5,593.4c3.1,4.7,1.7,11.1-3.1,14.2c-4.7,3.1-11.1,1.7-14.1-3.1c-3.1-4.7-1.7-11.1,3.1-14.2
	C555.1,587.3,561.5,588.7,564.5,593.4z M561.1,595.6c-1.9-2.9-5.7-3.7-8.6-1.9c-2.9,1.9-3.7,5.7-1.9,8.6c1.9,2.9,5.7,3.7,8.6,1.9
	C562.2,602.3,563,598.5,561.1,595.6z"/>
<path class="st0" d="M437.5,517.7c3.1,4.7,1.7,11.1-3.1,14.2c-4.7,3.1-11.1,1.7-14.1-3.1c-3.1-4.7-1.7-11.1,3.1-14.2
	C428.1,511.6,434.4,513,437.5,517.7z M434.1,519.9c-1.9-2.9-5.7-3.7-8.6-1.9c-2.9,1.9-3.7,5.7-1.9,8.6c1.9,2.9,5.7,3.7,8.6,1.9
	S436,522.8,434.1,519.9z"/>
<path class="st0" d="M514.8,642.9c3.1,4.7,1.7,11.1-3.1,14.2c-4.7,3.1-11.1,1.7-14.1-3.1c-3.1-4.7-1.7-11.1,3.1-14.1
	C505.4,636.8,511.7,638.2,514.8,642.9z M511.4,645.1c-1.9-2.9-5.7-3.7-8.6-1.9c-2.9,1.9-3.7,5.7-1.9,8.6c1.9,2.9,5.7,3.7,8.6,1.9
	C512.4,651.9,513.2,648,511.4,645.1z"/>
<path class="st0" d="M458.3,660.1c3.1,4.7,1.7,11.1-3.1,14.1c-4.7,3.1-11.1,1.7-14.1-3.1c-3.1-4.7-1.7-11.1,3.1-14.2
	C448.9,654,455.3,655.4,458.3,660.1z M455,662.3c-1.9-2.9-5.7-3.7-8.6-1.9c-2.9,1.9-3.7,5.7-1.9,8.6c1.9,2.9,5.7,3.7,8.6,1.9
	C456,669,456.8,665.2,455,662.3z"/>
<path class="st0" d="M301.5,558.1c3.1,4.7,1.7,11.1-3.1,14.2c-4.7,3.1-11.1,1.7-14.1-3.1c-3.1-4.7-1.7-11.1,3.1-14.2
	C292.1,552,298.5,553.3,301.5,558.1z M298.1,560.3c-1.9-2.9-5.7-3.7-8.6-1.9c-2.9,1.9-3.7,5.7-1.9,8.6c1.9,2.9,5.7,3.7,8.6,1.9
	C299.2,567,300,563.1,298.1,560.3z"/>
<path class="st0" d="M694.1,492.9c5,7.7,2.7,18-5,23c-7.7,5-18,2.7-23-5s-2.7-18,5-23C678.8,482.9,689.1,485.1,694.1,492.9z
	 M690.7,495c-3.8-5.9-11.6-7.6-17.5-3.8c-5.9,3.8-7.6,11.6-3.8,17.5c3.8,5.9,11.6,7.6,17.5,3.8C692.8,508.7,694.5,500.9,690.7,495z"
	/>
<ellipse transform="matrix(0.8408 -0.5413 0.5413 0.8408 -220.2009 413.3351)" class="st0" cx="592.7" cy="581.1" rx="8.2" ry="8.2"/>
<ellipse transform="matrix(0.8408 -0.5413 0.5413 0.8408 -243.7847 582.5099)" class="st0" cx="868.6" cy="705.8" rx="8.2" ry="8.2"/>
<ellipse transform="matrix(0.8408 -0.5414 0.5414 0.8408 -176.1552 301.4074)" class="st0" cx="424.3" cy="450.2" rx="8.2" ry="8.2"/>
<ellipse transform="matrix(0.8408 -0.5414 0.5414 0.8408 -249.7962 403.5182)" class="st0" cx="561.1" cy="626.4" rx="8.2" ry="8.2"/>
<ellipse transform="matrix(0.8408 -0.5414 0.5414 0.8408 -191.9007 322.9106)" class="st0" cx="453" cy="487.7" rx="8.2" ry="8.2"/>
<path class="st0" d="M305.8,500.9c5.2,8.1,2.9,18.9-5.2,24.1s-18.9,2.9-24.1-5.2c-5.2-8.1-2.9-18.9,5.2-24.1
	C289.8,490.4,300.6,492.8,305.8,500.9z M297.4,506.3c-2.2-3.4-6.8-4.4-10.2-2.2c-3.4,2.2-4.4,6.8-2.2,10.3c2.2,3.4,6.8,4.4,10.3,2.2
	C298.6,514.3,299.6,509.7,297.4,506.3z"/>
<path class="st0" d="M883.3,863.3c7.4,11.5,4.1,27-7.5,34.4c-11.5,7.4-27,4.1-34.4-7.5c-7.4-11.5-4.1-27,7.5-34.4
	C860.4,848.4,875.8,851.8,883.3,863.3z M871.5,870.9c-3.2-5-10-6.5-15-3.3s-6.5,10-3.2,15c3.2,5,10,6.5,15,3.2
	C873.2,882.7,874.7,876,871.5,870.9z"/>
<path class="st0" d="M826.9,841.8c4.3,6.7,2.4,15.6-4.3,19.9c-6.7,4.3-15.6,2.4-19.9-4.3c-4.3-6.7-2.4-15.6,4.3-19.9
	C813.7,833.2,822.6,835.2,826.9,841.8z M823.6,844c-3.1-4.8-9.5-6.2-14.3-3.1c-4.8,3.1-6.2,9.5-3.1,14.3c3.1,4.8,9.5,6.2,14.3,3.1
	C825.3,855.2,826.7,848.8,823.6,844z"/>
<path class="st0" d="M151.6,312.7c3.1,4.7,1.7,11.1-3.1,14.2c-4.7,3.1-11.1,1.7-14.2-3.1c-3.1-4.7-1.7-11.1,3.1-14.1
	C142.2,306.5,148.5,307.9,151.6,312.7z M148.2,314.8c-1.9-2.9-5.7-3.7-8.6-1.9c-2.9,1.9-3.7,5.7-1.9,8.6c1.9,2.9,5.7,3.7,8.6,1.9
	C149.2,321.6,150.1,317.7,148.2,314.8z"/>
<path class="st0" d="M246.9,464.2c-3.1-4.7-1.7-11.1,3.1-14.2c4.7-3.1,11.1-1.7,14.1,3.1c3.1,4.7,1.7,11.1-3.1,14.1
	C256.3,470.3,249.9,468.9,246.9,464.2z M250.3,462c1.9,2.9,5.7,3.7,8.6,1.9c2.9-1.9,3.7-5.7,1.9-8.6c-1.9-2.9-5.7-3.7-8.6-1.9
	C249.2,455.2,248.4,459.1,250.3,462z"/>
<path class="st0" d="M291,332.5c-3.1-4.7-1.7-11.1,3.1-14.2c4.7-3.1,11.1-1.7,14.2,3.1c3.1,4.7,1.7,11.1-3.1,14.1
	C300.4,338.6,294,337.2,291,332.5z M294.3,330.3c1.9,2.9,5.7,3.7,8.6,1.9c2.9-1.9,3.7-5.7,1.9-8.6c-1.9-2.9-5.7-3.7-8.6-1.9
	C293.3,323.6,292.5,327.4,294.3,330.3z"/>
<path class="st0" d="M88.3,76c3.1,4.7,1.7,11.1-3.1,14.1c-4.7,3.1-11.1,1.7-14.1-3.1c-3.1-4.7-1.7-11.1,3.1-14.2
	C78.9,69.8,85.2,71.2,88.3,76z M84.9,78.1c-1.9-2.9-5.7-3.7-8.6-1.9c-2.9,1.9-3.7,5.7-1.9,8.6c1.9,2.9,5.7,3.7,8.6,1.9
	S86.8,81,84.9,78.1z"/>
<path class="st0" d="M142.8,361.8c-2.5-3.8-7.6-4.9-11.4-2.5c-3.8,2.5-4.9,7.6-2.5,11.4c2.5,3.8,7.6,4.9,11.4,2.5
	C144.1,370.8,145.2,365.7,142.8,361.8z"/>
<ellipse transform="matrix(0.8408 -0.5414 0.5414 0.8408 -132.007 118.7791)" class="st0" cx="135.9" cy="283.8" rx="8.2" ry="8.2"/>
<path class="st0" d="M191.2,284c-2.5-3.8-7.6-4.9-11.4-2.5c-3.8,2.5-4.9,7.6-2.5,11.4c2.5,3.8,7.6,4.9,11.4,2.5
	C192.6,292.9,193.7,287.8,191.2,284z"/>
<path class="st0" d="M225.4,104.2c-2.5-3.8-7.6-4.9-11.4-2.5c-3.8,2.5-4.9,7.6-2.5,11.4c2.5,3.8,7.6,4.9,11.4,2.5
	C226.8,113.1,227.9,108,225.4,104.2z"/>
<ellipse transform="matrix(0.8408 -0.5414 0.5414 0.8408 -107.7581 237.3889)" class="st0" cx="349.7" cy="301.9" rx="8.2" ry="8.2"/>
<ellipse transform="matrix(0.8407 -0.5414 0.5414 0.8407 -164.9409 245.2019)" class="st0" cx="334.3" cy="403" rx="8.2" ry="8.2"/>
<ellipse transform="matrix(0.8407 -0.5415 0.5415 0.8407 -176.3013 179.9465)" class="st0" cx="217.7" cy="389.6" rx="8.2" ry="8.2"/>
<ellipse transform="matrix(0.8407 -0.5415 0.5415 0.8407 -132.6994 95.9803)" class="st0" cx="96.8" cy="273.5" rx="8.2" ry="8.2"/>
<polyline class="st0" points="97.2,0 160.5,98.7 154.5,136.4 233.1,258.5 222.4,308.2 134.8,364.6 136.9,368 225.9,310.7 
	237.4,257.7 158.7,135.5 164.7,97.8 102,0 "/>
<polyline class="st0" points="0,196.1 21.8,200.8 92.3,310.2 135.7,319.6 136.5,315.7 94.7,306.6 24.3,197.2 0,191.9 "/>
<polygon class="st0" points="76.3,88.4 70.5,115.2 145.2,231.2 135.1,278.1 139,278.9 149.5,230.5 74.8,114.5 80.2,89.3 "/>
<polyline class="st0" points="0,148.1 47.3,158.3 100.7,241.2 95.2,266.4 99.2,267.3 105,240.5 49.7,154.7 0,143.9 "/>
<polyline class="st0" points="70.3,0 134,99.5 122.8,151.1 188.8,253.5 182.9,280.9 186.8,281.7 193,252.7 127.1,150.4 138.3,98.7 
	75,0 "/>
<polyline class="st0" points="149.9,0 194.1,69 222.1,75.1 344,264.4 390.3,274.4 496.7,439.5 527.5,446.2 639.6,620.2 701.3,633.6 
	759.2,723.4 752,756.5 806.3,840.7 809.7,838.5 756.3,755.7 763.5,722.6 703.8,630 642.1,616.6 530,442.6 499.1,435.9 392.8,270.9 
	346.5,260.8 224.6,71.5 196.5,65.5 154.6,0 "/>
<path class="st0" d="M396,781.9c6.2-4.9,15.3-3.8,20.2,2.5c4.9,6.2,3.8,15.3-2.5,20.2c-6.2,4.9-15.3,3.8-20.2-2.5
	C388.7,795.8,389.8,786.8,396,781.9z M411.3,801.4c4.5-3.5,5.3-10.1,1.8-14.6s-10.1-5.3-14.6-1.8s-5.3,10.1-1.8,14.6
	C400.2,804.1,406.8,804.9,411.3,801.4z"/>
<polyline class="st0" points="0,228.3 244.6,554.6 236.9,617.3 302.8,701.5 336.4,705.6 398.2,784.4 395,786.9 334.3,709.3 
	300.7,705.3 232.8,618.5 240.4,555.8 0,235.1 "/>
<polyline class="st0" points="182.7,0 207.3,38.2 233.7,43.9 364.9,247.7 398.3,254.9 509.7,427.9 546,435.8 651.7,599.9 719,614.4 
	790.5,725.5 828.3,733.7 874,804.7 863.1,855.2 876.8,858.2 889,802 836.9,721.2 799.1,713 727.6,601.9 660.3,587.4 554.6,423.3 
	518.3,415.4 406.9,242.4 373.6,235.2 242.3,31.4 215.9,25.7 199.4,0 "/>
<polyline class="st0" points="212.2,0 224.3,18.8 254.6,25.4 385.9,229.3 420.6,236.8 529.8,406.4 570.3,415.1 672.1,573.3 
	745.8,589.3 813.7,694.7 864.7,705.7 865.6,701.8 816.2,691.1 748.3,585.7 674.6,569.8 572.7,411.6 532.3,402.8 423.1,233.2 
	388.4,225.7 257.1,21.9 226.8,15.3 216.9,0 "/>
<polyline class="st0" points="225.7,0 231,8.2 268.7,16.4 399.3,219.3 437.1,227.4 542.7,391.5 587.9,401.3 611.4,437.8 641,444.2 
	671.1,490.9 674.5,488.8 643.5,440.6 613.9,434.2 590.4,397.7 545.2,388 439.5,223.9 401.8,215.7 271.1,12.8 233.5,4.7 230.5,0 "/>
<polygon class="st0" points="395.6,342.9 392.2,345.1 463.2,455.2 517.3,466.9 594.4,586.6 597.8,584.5 519.8,463.4 465.6,451.6 "/>
<polyline class="st0" points="122.7,0 182.5,93.2 173.2,135.9 259.2,269.4 292.5,276.6 379.6,411.9 371.1,451.2 297.3,498.8 
	302.7,507.2 380.1,457.4 390.3,410 298.7,267.7 265.4,260.5 183.9,133.9 193.1,91.3 134.6,0 "/>
<polygon class="st0" points="422.2,453.1 415.1,485.8 342.9,532.4 333.3,576.6 366.2,627.6 361.7,648.6 339.9,662.6 323.8,659.1 
	286.4,601.1 292.9,571 288.9,570.2 282.1,601.8 321.3,662.7 340.7,666.9 365.2,651.1 370.5,626.9 337.6,575.8 346.5,534.8 
	418.7,488.3 426.2,453.9 "/>
<polygon class="st0" points="436.3,522.3 435.5,526.3 465,532.7 521.1,619.8 556.8,627.5 557.7,623.6 523.6,616.3 467.5,529.1 "/>
<polygon class="st0" points="414.9,554.9 380.5,577 375.2,601.9 411.5,658.2 443.2,665.1 444.1,661.2 413.9,654.7 379.4,601.1 
	384.1,579.5 415.7,559.1 450.2,566.6 500.3,644.4 503.7,642.3 452.7,563.1 "/>
<polygon class="st0" points="458.8,487.3 457.9,491.3 488.1,497.8 550.4,594.5 553.7,592.3 490.6,494.2 "/>
<polygon class="st0" points="249.3,459 250.2,455.1 222.3,449 178.4,380.9 183.8,356.1 244.4,317 291.4,327.2 292.2,323.3 
	243.7,312.8 180.2,353.6 174.1,381.7 219.8,452.6 "/>
<polygon class="st0" points="282.7,436.8 332.1,405 329.9,401.6 281.9,432.6 242.2,424 219.4,388.5 216,390.7 239.8,427.5 "/>
<polygon class="st0" points="216,107.1 209.7,136.3 272.8,234.3 307.7,241.8 347.7,303.9 351.1,301.8 310.2,238.2 275.3,230.7 
	214,135.5 220,107.9 "/>
<path class="st0" d="M327.1,376.9c-3.1-4.7-1.7-11.1,3.1-14.2c4.7-3.1,11.1-1.7,14.2,3.1c3.1,4.7,1.7,11.1-3.1,14.1
	C336.5,383.1,330.2,381.7,327.1,376.9z M330.5,374.8c1.9,2.9,5.7,3.7,8.6,1.9c2.9-1.9,3.7-5.7,1.9-8.6c-1.9-2.9-5.7-3.7-8.6-1.9
	S328.6,371.9,330.5,374.8z"/>
<path class="st0" d="M243.4,396.6c2.5,3.8,7.6,4.9,11.4,2.5c3.8-2.5,4.9-7.6,2.5-11.4c-2.5-3.8-7.6-4.9-11.4-2.5
	C242,387.7,240.9,392.8,243.4,396.6z"/>
<polygon class="st0" points="328.4,371 329.2,367.1 296.4,360 249.2,390.4 251.4,393.8 297.2,364.3 "/>
</svg>
